<?xml version="1.0" encoding="UTF-8" standalone="no"?>
<svg
   xmlns:dc="http://purl.org/dc/elements/1.1/"
   xmlns:cc="http://creativecommons.org/ns#"
   xmlns:rdf="http://www.w3.org/1999/02/22-rdf-syntax-ns#"
   xmlns:svg="http://www.w3.org/2000/svg"
   xmlns="http://www.w3.org/2000/svg"
   xmlns:sodipodi="http://sodipodi.sourceforge.net/DTD/sodipodi-0.dtd"
   xmlns:inkscape="http://www.inkscape.org/namespaces/inkscape"
   version="1.1"
   id="svg2"
   xml:space="preserve"
   width="592.4267"
   height="197.37334"
   viewBox="0 0 592.4267 197.37334"
   sodipodi:docname="SprayFinder_logo.eps"><metadata
     id="metadata8"><rdf:RDF><cc:Work
         rdf:about=""><dc:format>image/svg+xml</dc:format><dc:type
           rdf:resource="http://purl.org/dc/dcmitype/StillImage" /></cc:Work></rdf:RDF></metadata><defs
     id="defs6" /><sodipodi:namedview
     pagecolor="#ffffff"
     bordercolor="#666666"
     borderopacity="1"
     objecttolerance="10"
     gridtolerance="10"
     guidetolerance="10"
     inkscape:pageopacity="0"
     inkscape:pageshadow="2"
     inkscape:window-width="640"
     inkscape:window-height="480"
     id="namedview4" /><g
     id="g10"
     inkscape:groupmode="layer"
     inkscape:label="ink_ext_XXXXXX"
     transform="matrix(1.3333333,0,0,-1.3333333,0,197.37333)"><g
       id="g12"
       transform="scale(0.1)"><path
         d="M 2475.37,1158.71 V 1270.7 H 2159.7 c 22.72,-57.97 33.5,-112.57 38.49,-147.46 l 11.02,-76.63 44.39,-58.887 42.31,-56.227 h 171.34 v 111.984 h -176.9 v 115.23 z m -250.29,-226.749 -19.93,0.465 c -4.52,-45.328 -18.67,-142.242 -60.87,-228.141 h 146.07 v 226.164 l -65.27,1.512"
         style="fill:#1f4b7e;fill-opacity:1;fill-rule:nonzero;stroke:none"
         id="path14" /><path
         d="M 2542.72,1127.06 V 704.285 h 146.07 v 422.775 z m 0,185.83 v -121.72 h 146.07 v 121.72 h -146.07"
         style="fill:#1f4b7e;fill-opacity:1;fill-rule:nonzero;stroke:none"
         id="path16" /><path
         d="m 3032.86,1136.8 c -82.78,0 -111.17,-57.61 -119.29,-80.34 h -1.62 c 0,23.54 -0.81,53.56 -3.25,70.6 h -137.14 c 2.44,-19.47 4.87,-54.37 4.87,-86.01 V 704.285 h 146.07 v 232.078 c 0,43.821 16.23,81.957 52.74,81.957 27.6,0 39.77,-19.468 39.77,-60.047 V 704.285 h 146.06 v 296.185 c 0,93.32 -55.99,136.33 -128.21,136.33"
         style="fill:#1f4b7e;fill-opacity:1;fill-rule:nonzero;stroke:none"
         id="path18" /><path
         d="m 3438.6,800.035 c -43.01,0 -56.81,48.688 -56.81,119.289 0,70.602 13.8,118.476 56.81,118.476 36.51,0 56.81,-47.874 56.81,-118.476 0,-70.601 -20.3,-119.289 -56.81,-119.289 z m 202.87,-21.097 v 533.952 h -146.06 v -172.03 c 0,-31.65 1.62,-57.62 3.24,-75.47 h -1.62 c -30.03,48.69 -60.86,71.41 -116.86,71.41 -105.49,0 -150.94,-111.98 -150.94,-210.984 0,-128.214 47.07,-228.027 158.25,-228.027 43.82,0 81.15,17.852 111.98,74.656 h 1.62 c 0,-22.722 2.44,-45.445 4.06,-68.16 h 139.57 c -1.62,25.156 -3.24,49.496 -3.24,74.653"
         style="fill:#1f4b7e;fill-opacity:1;fill-rule:nonzero;stroke:none"
         id="path20" /><path
         d="m 3970.12,951.785 h -124.97 c 0,58.425 24.35,95.755 65.74,95.755 43.81,0 59.23,-26.78 59.23,-83.587 z m 133.08,-34.898 c 0,115.233 -62.48,219.913 -194.76,219.913 -127.4,0 -196.37,-103.06 -196.37,-219.097 0,-108.742 49.5,-223.976 220.72,-223.164 59.24,0.82 112.8,12.988 147.69,24.344 l -3.25,101.441 c -35.7,-15.422 -83.58,-33.269 -123.34,-33.269 -54.37,0 -101.43,20.285 -105.5,88.449 h 254.81 v 41.383"
         style="fill:#1f4b7e;fill-opacity:1;fill-rule:nonzero;stroke:none"
         id="path22" /><path
         d="m 4418.87,1136.8 c -69.78,0 -95.76,-47.07 -107.93,-80.34 h -1.62 c 0,23.54 -0.81,53.56 -3.25,70.6 h -137.14 c 2.44,-19.47 4.87,-62.48 4.87,-122.53 V 704.285 h 146.07 v 210.168 c 0,55.992 32.46,97.377 79.52,97.377 17.04,0 37.33,-2.43 43.83,-4.87 v 127.41 c -8.93,1.62 -13.8,2.43 -24.35,2.43"
         style="fill:#1f4b7e;fill-opacity:1;fill-rule:nonzero;stroke:none"
         id="path24" /><path
         d="m 2163.76,1118.25 -22.72,27.59 -41.5,50.43 -11.01,-15.65 c -17.63,-24.92 -36.75,-51.7 -50.32,-70.36 -34.43,155.57 -105.72,240.19 -163.45,267.9 -19.48,9.27 -39.42,13.91 -59.71,13.91 -14.14,0 -28.51,-2.2 -42.89,-6.72 -41.5,-13.1 -74.77,-39.42 -100.97,-69.44 23.77,46.37 56.69,92.85 100.97,122.99 40.35,27.6 79.88,41.39 117.55,41.39 7.3,0 14.49,-0.46 21.68,-1.51 57.03,-8.23 111.87,-49.03 163.11,-121.14 31.64,-44.51 52.63,-93.67 66.54,-138.3 12.17,-39.18 19.01,-75 22.72,-101.09"
         style="fill:#1f4b7e;fill-opacity:1;fill-rule:nonzero;stroke:none"
         id="path26" /><path
         d="m 2225.89,966.734 -53.09,1.282 -0.46,-11.246 c -0.23,-1.043 -4.17,-80.454 -31.3,-166.36 -8.11,-25.965 -18.32,-52.512 -31.3,-77.668 -65.38,-126.933 -141.9,-191.281 -227.8,-191.281 -5.1,0 -10.08,0.234 -15.3,0.703 -46.83,4.055 -86.71,30.02 -116.5,57.383 4.4,5.91 8.46,12.168 12.28,18.664 15.31,-5.918 31.42,-9.395 48.11,-9.395 10.44,0 21.1,1.278 32.12,4.286 114.06,30.957 203.22,180.503 211.56,355.781 l 0.58,11.828 -66.77,0.117 115.92,167.622 37.1,-49.15 84.85,-112.566"
         style="fill:#1f4b7e;fill-opacity:1;fill-rule:nonzero;stroke:none"
         id="path28" /><path
         d="m 2295.91,931.496 h -5.56 v -1.047 l 6.49,-0.109 -0.93,1.156"
         style="fill:#ffffff;fill-opacity:1;fill-rule:nonzero;stroke:none"
         id="path30" /><path
         d="m 1897,58.2305 c 24.28,27.6992 39.01,315.6095 16.43,336.0705 C 1892.84,363.57 1878.34,82.2695 1897,58.2305 Z m 51.77,166.1795 c -2.83,-69.422 -5.35,-73.558 -8.65,-142.9803 C 1937.75,31.6484 1900.33,-0.96875 1848.07,0.0195313 1795.24,1.01172 1760.91,34.4609 1762.83,85.5117 c 5.32,141.3793 11.2,152.1683 17.51,293.5193 1.88,42.16 20.3,55.578 71.71,55.059 15.36,-0.16 30.74,-0.531 46.08,-1.328 40.98,-2.153 61.04,-20.153 59.64,-54.024 -3.01,-73.207 -6.02,-81.129 -9,-154.328"
         style="fill:#1f4b7e;fill-opacity:1;fill-rule:nonzero;stroke:none"
         id="path32" /><path
         d="m 1813.94,468.422 1.65,40.121 c 38.99,-12.422 75.88,-13.906 111.85,-3.105 14.1,-46.309 10.83,-49.817 -45.19,-48.379 -17.95,0.461 -35.9,0.972 -57.18,1.57 -6.36,0.191 -11.35,4.562 -11.13,9.793"
         style="fill:#1f4b7e;fill-opacity:1;fill-rule:nonzero;stroke:none"
         id="path34" /><path
         d="m 1608.71,1133.32 c 31.3,134.94 108.16,230.23 198.35,230.7 76.51,0.23 144.09,-67.7 183.04,-170.41 -35.47,78.36 -91,128.91 -153.14,128.67 -82.07,-0.34 -151.63,-89.03 -177.94,-213.3 l -0.23,0.58 -8,23.76 h -42.08"
         style="fill:#a7a5a6;fill-opacity:1;fill-rule:nonzero;stroke:none"
         id="path36" /><path
         d="m 1643.72,760.852 c -8.58,17.503 -16.12,36.285 -22.49,56.226 l 22.49,-56.226"
         style="fill:#a7a5a6;fill-opacity:1;fill-rule:nonzero;stroke:none"
         id="path38" /><path
         d="m 1993.81,800.965 c -37.44,-104.914 -104.8,-174.934 -182.23,-175.285 -11.25,0 -22.26,1.398 -33.04,4.179 1.97,4.512 3.82,9.27 5.56,14.024 l 12.4,33.039 c 14.27,-5.793 29.11,-8.809 44.4,-8.692 62.95,0.235 118.48,52.391 152.91,132.735"
         style="fill:#a7a5a6;fill-opacity:1;fill-rule:nonzero;stroke:none"
         id="path40" /><path
         d="m 334.449,848.609 c 0,-46.254 -16.578,-82.773 -49.965,-109.433 -33.39,-26.668 -79.757,-40 -139.113,-40 -54.8319,0 -103.1718,10.207 -145.371,30.84 v 101.089 c 34.6641,-15.417 63.9922,-26.32 87.9883,-32.695 23.8827,-6.258 45.9097,-9.39 65.7307,-9.39 23.879,0 42.195,4.523 54.949,13.683 12.75,9.043 19.125,22.606 19.125,40.688 0,10.089 -2.781,19.011 -8.461,26.781 -5.566,7.883 -13.793,15.418 -24.691,22.723 -10.899,7.183 -33.039,18.777 -66.543,34.66 -31.3011,14.84 -54.8285,28.98 -70.4847,42.547 -15.7617,13.562 -28.168,29.328 -37.5586,47.298 -9.3906,18.08 -14.02736,39.06 -14.02736,63.18 0,45.44 15.30076,81.15 46.14066,107.11 30.7187,25.97 73.262,38.95 127.516,38.95 26.664,0 52.168,-3.25 76.394,-9.5 24.231,-6.37 49.504,-15.19 75.934,-26.66 l -35.125,-84.63 c -27.36,11.24 -49.961,19.13 -67.817,23.53 -17.968,4.41 -35.586,6.73 -52.863,6.73 -20.637,0 -36.402,-4.87 -47.41,-14.5 -11.02,-9.5 -16.469,-22.02 -16.469,-37.44 0,-9.62 2.207,-17.97 6.731,-25.15 4.406,-7.08 11.472,-14.03 21.211,-20.64 9.625,-6.72 32.691,-18.67 68.98,-36.06 47.875,-22.949 80.797,-45.902 98.535,-68.968 17.852,-22.954 26.664,-51.239 26.664,-84.743"
         style="fill:#393536;fill-opacity:1;fill-rule:nonzero;stroke:none"
         id="path42" /><path
         d="m 592.266,785.777 c -27.129,0 -46.95,9.157 -59.473,27.36 -12.52,18.316 -18.777,48.457 -18.777,90.656 v 11.473 c 0.464,37.445 6.839,64.339 19.011,80.566 12.172,16.228 31.418,24.468 57.848,24.468 25.273,0 43.816,-9.74 55.645,-28.984 11.828,-19.359 17.738,-48.226 17.738,-86.832 0,-79.175 -23.996,-118.707 -71.992,-118.707 z m 141.777,266.403 c -26.199,35.82 -62.484,53.67 -108.738,53.67 -49.153,0 -86.25,-19.36 -111.289,-58.2 h -4.868 l -15.07,50.9 H 407.02 V 533.523 h 106.996 v 158.934 c 0,5.098 -1.852,24.113 -5.563,56.805 h 5.563 c 26.199,-33.387 62.367,-50.086 108.511,-50.086 30.598,0 57.266,8 79.985,24.113 22.722,16.234 40.109,39.766 52.402,70.606 12.285,30.835 18.426,67.234 18.426,109.085 0,63.645 -13.094,113.38 -39.297,149.2"
         style="fill:#393536;fill-opacity:1;fill-rule:nonzero;stroke:none"
         id="path44" /><path
         d="m 1068.84,1105.85 c 14.49,0 26.55,-1.04 36.17,-3.13 l -8,-100.4 c -8.7,2.32 -19.25,3.48 -31.65,3.48 -34.2,0 -60.74,-8.687 -79.872,-26.312 -19.011,-17.504 -28.519,-42.078 -28.519,-73.613 V 706.141 H 849.855 v 392.409 h 81.149 l 15.766,-65.96 h 5.214 c 12.172,21.9 28.637,39.64 49.386,53.09 20.63,13.45 43.12,20.17 67.47,20.17"
         style="fill:#393536;fill-opacity:1;fill-rule:nonzero;stroke:none"
         id="path46" /><path
         d="m 1371.98,855.68 c 0,-23.649 -7.41,-42.66 -22.25,-56.918 -14.84,-14.262 -34.67,-21.332 -59.47,-21.332 -34.66,0 -51.94,15.074 -51.94,45.215 0,21.093 7.54,36.746 22.84,47.066 15.19,10.316 38.26,15.879 69.44,16.805 l 41.38,1.39 z m 64.23,216.55 c -28.05,22.84 -68.4,34.32 -121.03,34.32 -55.06,0 -105.14,-11.83 -150.24,-35.36 l 35.48,-72.338 c 42.31,18.898 79.17,28.398 110.47,28.398 40.81,0 61.09,-19.82 61.09,-59.699 v -17.156 l -68.04,-2.09 c -58.78,-2.086 -102.71,-13.098 -131.81,-32.805 -29.1,-19.824 -43.71,-50.547 -43.71,-92.164 0,-39.766 10.9,-70.363 32.46,-91.93 21.68,-21.566 51.36,-32.23 89.03,-32.23 30.61,0 55.42,4.297 74.54,13.105 19.02,8.809 37.57,24.457 55.65,47.18 h 2.78 l 20.75,-53.32 h 74.66 v 261.41 c 0,46.829 -14.03,81.719 -42.08,104.679"
         style="fill:#393536;fill-opacity:1;fill-rule:nonzero;stroke:none"
         id="path48" /><path
         d="m 1917.42,1098.55 -151.75,-404.472 -14.26,-38.133 c -1.62,-4.523 -3.36,-8.937 -5.33,-13.222 -4.4,-10.313 -9.28,-19.942 -14.72,-28.868 -1.86,-3.125 -3.83,-6.144 -5.91,-9.042 -11.14,-16.458 -24.23,-30.02 -39.07,-40.801 -28.17,-20.403 -61.1,-30.489 -98.77,-30.489 -18.55,0 -36.63,1.973 -54.49,5.907 v 84.98 c 12.87,-3.015 26.9,-4.637 42.2,-4.637 18.89,0 35.47,5.79 49.62,17.383 14.14,11.602 25.15,29.102 33.15,52.52 l 6.38,19.238 -20.75,51.938 -22.49,56.226 -112.68,281.472 h 117.32 l 22.6,-67.59 v -0.12 l 51.36,-153.133 c 6.37,-19.133 10.66,-41.852 12.98,-68.051 h 2.2 c 2.55,24.117 7.54,46.836 15.07,68.051 l 72.57,220.843 h 114.77"
         style="fill:#393536;fill-opacity:1;fill-rule:nonzero;stroke:none"
         id="path50" /><path
         d="m 1643.72,760.852 c -8.58,17.503 -16.12,36.285 -22.49,56.226 l 22.49,-56.226"
         style="fill:#393536;fill-opacity:1;fill-rule:nonzero;stroke:none"
         id="path52" /><path
         d="m 1621.23,817.078 c 6.37,-19.941 13.91,-38.723 22.49,-56.226 l -22.49,56.226"
         style="fill:#ffffff;fill-opacity:1;fill-rule:nonzero;stroke:none"
         id="path54" /></g></g></svg>
